<svg xmlns="http://www.w3.org/2000/svg" xmlns:xlink="http://www.w3.org/1999/xlink" xmlns:lucid="lucid" width="2340.5" height="1619.25"><g transform="translate(-419.5 -179.5)" lucid:page-tab-id="0_0"><path d="M0 0h3555.5v2590.8H0z" fill="#fff"/><path d="M923 1477.25h546a12 12 0 0 0 12-12v-408a12 12 0 0 1 12-12h530.12" stroke="#1071e5" fill="none"/><path d="M923 1477.75h-.5v-1h.5z" stroke="#1071e5" stroke-width=".05" fill="#1071e5"/><path d="M2037.88 1045.25l-14.26 4.63v-9.27z" stroke="#1071e5" fill="#1071e5"/><path d="M602 1232.25V1111.5a12 12 0 0 1 12-12h834a12 12 0 0 0 12-12V756.38" stroke="#1071e5" fill="none"/><path d="M602.5 1232.75h-1v-.5h1z" stroke="#1071e5" stroke-width=".05" fill="#1071e5"/><path d="M1460 741.62l4.63 14.26h-9.27z" stroke="#1071e5" fill="#1071e5"/><path d="M602 1143.25v-8.5a12 12 0 0 1 12-12h96a12 12 0 0 0 12-12V491a12 12 0 0 1 12-12h769.12" stroke="#1071e5" fill="none"/><path d="M602.5 1143.75h-1v-.5h1z" stroke="#1071e5" stroke-width=".05" fill="#1071e5"/><path d="M1517.88 479l-14.26 4.63v-9.26z" stroke="#1071e5" fill="#1071e5"/><path d="M2400 822.35v5.13m0 5.13v10.27m0 5.13v10.25m0 5.13v10.26m0 5.13v10.26m0 5.13v10.26m0 5.13v10.25m0 5.13v10.26m0 5.12v10.26m0 5.13v10.27m0 5.13v10.25m0 5.13v10.26m0 5.13v5.13l-.15 1.88-.44 1.83-.7 1.75-.34.53m-4.38 4.38l-.53.33-1.74.7-1.82.45-1.88.15h-5m-5 0h-10.03m-5 0h-10.02m-5 0h-10.02m-5 0h-10.02m-5 0h-10.02m-5 0h-10.02m-5 0h-10.02m-5 0h-10.02m-5 0h-10.02m-5 0h-10.03m-5 0h-10.02m-5 0h-10.02m-5 0h-10.02m-5 0h-10m-5.02 0h-10m-5.02 0h-10m-5.02 0h-10.02m-5 0h-10.02m-5 0h-10.02m-5 0h-10.02m-5 0h-10.02m-5 0h-10.03m-5 0h-10m-5 0h-10.03m-5 0h-10.02m-5 0h-10.02m-5 0h-10.02m-5 0h-10.02m-5 0h-10.02m-5 0h-10.02m-5 0h-10.02m-5 0h-10.02m-5 0h-10.02m-5 0h-10.03m-5 0h-10.02m-5 0h-10.02m-5 0h-10m-5.02 0h-10m-5.02 0h-10.02m-5 0h-10.02m-5 0h-10.02m-5 0h-10.02m-5 0h-10.02m-5 0h-10.02m-5 0H1707m-5 0h-10.03m-5 0h-10.03m-5 0h-10.02m-5 0h-10.02m-5 0h-10.02m-5 0h-10.02m-5 0h-10.02m-5 0h-10.02m-5 0h-10.02m-5 0h-10.02m-5 0h-10.02m-5 0h-10.03m-5 0h-10.02m-5 0h-10.02m-5 0h-10m-5.02 0h-10m-5.02 0h-10.02m-5 0h-10.02m-5 0h-10.02m-5 0h-10.02m-5 0h-10.02m-5 0h-10.02m-5 0h-10.02m-5 0h-5.02l-1.88-.15-1.83-.44-1.75-.7-.53-.34m-4.38-4.38l-.33-.53-.7-1.74-.45-1.82-.15-1.88v-4.8m0-4.83v-9.62m0-4.8v-9.64m0-4.8v-9.63m0-4.8v-9.63m0-4.82V930m0-4.8v-9.64m0-4.8v-9.63m0-4.82v-4.8l.15-1.88.44-1.83.7-1.75.34-.53m4.38-4.38l.53-.33 1.74-.7 1.82-.45 1.88-.15h3.37m3.37 0h3.38" stroke="#333" fill="none"/><path d="M2400.5 822.36h-1v-.5h1z" stroke="#333" stroke-width=".05" fill="#333"/><path d="M1376.38 879.5l-14.26 4.63v-9.26z" stroke="#333" fill="#333"/><g opacity=".85"><path d="M1180 208a8 8 0 0 1 8-8h144a8 8 0 0 1 8 8v64a8 8 0 0 1-8 8h-144a8 8 0 0 1-8-8z" stroke="#333" fill="#1071e5"/><use xlink:href="#a" transform="matrix(1,0,0,1,1185,205) translate(62.65688888888889 45.27616666666666)"/></g><path d="M440 407a8 8 0 0 1 8-8h144a8 8 0 0 1 8 8v144a8 8 0 0 1-8 8H448a8 8 0 0 1-8-8z" stroke="#333" fill="#fff7a1"/><use xlink:href="#b" transform="matrix(1,0,0,1,445,404.00009999999975) translate(53.025 80.025)"/><path d="M760 407.5a8 8 0 0 1 8-8h144a8 8 0 0 1 8 8v144a8 8 0 0 1-8 8H768a8 8 0 0 1-8-8z" stroke="#333" fill="#c3f7c8"/><use xlink:href="#c" transform="matrix(1,0,0,1,765,404.5000499999999) translate(31.049999999999997 80.025)"/><path d="M1180 407.5a8 8 0 0 1 8-8h144a8 8 0 0 1 8 8v144a8 8 0 0 1-8 8h-144a8 8 0 0 1-8-8z" stroke="#333" fill="#b8f5ed"/><use xlink:href="#d" transform="matrix(1,0,0,1,1185,404.5000499999999) translate(51.05 80.025)"/><path d="M1520 407a8 8 0 0 1 8-8h144a8 8 0 0 1 8 8v144a8 8 0 0 1-8 8h-144a8 8 0 0 1-8-8z" stroke="#333" fill="#cfe4ff"/><use xlink:href="#e" transform="matrix(1,0,0,1,1525,404.00009999999975) translate(10.549999999999997 80.025)"/><use xlink:href="#f" transform="matrix(1,0,0,1,1525,404.00009999999975) translate(91.45 80.025)"/><path d="M1860 407a8 8 0 0 1 8-8h144a8 8 0 0 1 8 8v144a8 8 0 0 1-8 8h-144a8 8 0 0 1-8-8z" stroke="#333" fill="#ffdda6"/><use xlink:href="#g" transform="matrix(1,0,0,1,1865,404.00009999999975) translate(51.025 80.025)"/><path d="M2140 408a8 8 0 0 1 8-8h144a8 8 0 0 1 8 8v144a8 8 0 0 1-8 8h-144a8 8 0 0 1-8-8z" stroke="#333" fill="#dedeff"/><use xlink:href="#h" transform="matrix(1,0,0,1,2145,405) translate(38.575 80.025)"/><use xlink:href="#i" transform="matrix(1,0,0,1,2145,405) translate(83.475 80.025)"/><path d="M1260 281v46.5a12 12 0 0 1-12 12H532a12 12 0 0 0-12 12v30.62" stroke="#333" fill="none"/><path d="M1260.5 281h-1v-.5h1z" stroke="#333" stroke-width=".05" fill="#333"/><path d="M520 396.88l-4.63-14.26h9.26z" stroke="#333" fill="#333"/><path d="M1260 281v46.75a12 12 0 0 1-12 12H852a12 12 0 0 0-12 12v30.87" stroke="#333" fill="none"/><path d="M1260.5 281h-1v-.5h1z" stroke="#333" stroke-width=".05" fill="#333"/><path d="M840 397.38l-4.63-14.26h9.26z" stroke="#333" fill="#333"/><path d="M1260 281v101.62" stroke="#333" fill="none"/><path d="M1260.5 281h-1v-.5h1z" stroke="#333" stroke-width=".05" fill="#333"/><path d="M1260 397.38l-4.63-14.26h9.27z" stroke="#333" fill="#333"/><path d="M1260 281v46.5a12 12 0 0 0 12 12h316a12 12 0 0 1 12 12v30.62" stroke="#333" fill="none"/><path d="M1260.5 281h-1v-.5h1z" stroke="#333" stroke-width=".05" fill="#333"/><path d="M1600 396.88l-4.63-14.26h9.27z" stroke="#333" fill="#333"/><path d="M1260 281v46.5a12 12 0 0 0 12 12h656a12 12 0 0 1 12 12v30.62" stroke="#333" fill="none"/><path d="M1260.5 281h-1v-.5h1z" stroke="#333" stroke-width=".05" fill="#333"/><path d="M1940 396.88l-4.63-14.26h9.27z" stroke="#333" fill="#333"/><path d="M1260 281v47a12 12 0 0 0 12 12h936a12 12 0 0 1 12 12v31.12" stroke="#333" fill="none"/><path d="M1260.5 281h-1v-.5h1z" stroke="#333" stroke-width=".05" fill="#333"/><path d="M2220 397.88l-4.64-14.26h9.28z" stroke="#333" fill="#333"/><path d="M520 560v87a12 12 0 0 0 12 12h11.12" stroke="#333" fill="none"/><path d="M520.5 560h-1v-.5h1z" stroke="#333" stroke-width=".05" fill="#333"/><path d="M557.88 659l-14.26 4.63v-9.26z" stroke="#333" fill="#333"/><path d="M560 647a8 8 0 0 1 8-8h144a8 8 0 0 1 8 8v24a8 8 0 0 1-8 8H568a8 8 0 0 1-8-8z" stroke="#333" fill="#fff"/><use xlink:href="#j" transform="matrix(1,0,0,1,565,644.0000999999997) translate(49.525 18.15)"/><path d="M520 560v167a12 12 0 0 0 12 12h11.12" stroke="#333" fill="none"/><path d="M520.5 560h-1v-.5h1z" stroke="#333" stroke-width=".05" fill="#333"/><path d="M557.88 739l-14.26 4.63v-9.26z" stroke="#333" fill="#333"/><path d="M560 727a8 8 0 0 1 8-8h144a8 8 0 0 1 8 8v24a8 8 0 0 1-8 8H568a8 8 0 0 1-8-8z" stroke="#333" fill="#fff"/><use xlink:href="#k" transform="matrix(1,0,0,1,565,724.0000999999997) translate(52.5 18.15)"/><path d="M840 560.5v87a12 12 0 0 0 12 12h11.12" stroke="#333" fill="none"/><path d="M840.5 560.5h-1v-.5h1z" stroke="#333" stroke-width=".05" fill="#333"/><path d="M877.88 659.5l-14.26 4.63v-9.26z" stroke="#333" fill="#333"/><path d="M880 637.5a8 8 0 0 1 8-8h144a8 8 0 0 1 8 8v44a8 8 0 0 1-8 8H888a8 8 0 0 1-8-8z" stroke="#333" fill="#fff"/><use xlink:href="#l" transform="matrix(1,0,0,1,885,634.5000499999999) translate(46.525 30.025)"/><path d="M840 560.5v197a12 12 0 0 0 12 12h11.12" stroke="#333" fill="none"/><path d="M840.5 560.5h-1v-.5h1z" stroke="#333" stroke-width=".05" fill="#333"/><path d="M877.88 769.5l-14.26 4.63v-9.26z" stroke="#333" fill="#333"/><path d="M880 747.5a8 8 0 0 1 8-8h144a8 8 0 0 1 8 8v44a8 8 0 0 1-8 8H888a8 8 0 0 1-8-8z" stroke="#333" fill="#fff"/><use xlink:href="#m" transform="matrix(1,0,0,1,885,744.5000499999999) translate(29.575000000000003 30.025)"/><path d="M840 560.5v307a12 12 0 0 0 12 12h11.12" stroke="#333" fill="none"/><path d="M840.5 560.5h-1v-.5h1z" stroke="#333" stroke-width=".05" fill="#333"/><path d="M877.88 879.5l-14.26 4.63v-9.26z" stroke="#333" fill="#333"/><path d="M880 857.5a8 8 0 0 1 8-8h144a8 8 0 0 1 8 8v44a8 8 0 0 1-8 8H888a8 8 0 0 1-8-8z" stroke="#333" fill="#fff"/><use xlink:href="#n" transform="matrix(1,0,0,1,885,854.5000499999999) translate(14.074999999999996 17.525)"/><use xlink:href="#o" transform="matrix(1,0,0,1,885,854.5000499999999) translate(80.975 17.525)"/><use xlink:href="#p" transform="matrix(1,0,0,1,885,854.5000499999999) translate(100.975 17.525)"/><use xlink:href="#q" transform="matrix(1,0,0,1,885,854.5000499999999) translate(48.025 39.125)"/><path d="M840 560.5v412a12 12 0 0 0 12 12h11.12" stroke="#333" fill="none"/><path d="M840.5 560.5h-1v-.5h1z" stroke="#333" stroke-width=".05" fill="#333"/><path d="M877.88 984.5l-14.26 4.63v-9.26z" stroke="#333" fill="#333"/><path d="M880 967.5a8 8 0 0 1 8-8h144a8 8 0 0 1 8 8v34a8 8 0 0 1-8 8H888a8 8 0 0 1-8-8z" stroke="#333" fill="#fff"/><use xlink:href="#r" transform="matrix(1,0,0,1,885,964.5000499999999) translate(32.55 24.4)"/><path d="M1260 560.5v67.36" stroke="#333" fill="none"/><path d="M1260.5 560.5h-1v-.5h1z" stroke="#333" stroke-width=".05" fill="#333"/><path d="M1273.38 629.1l-14.64 3.3.86-9.24z" stroke="#333" fill="#333"/><path d="M1275.5 617a8 8 0 0 1 8-8h144a8 8 0 0 1 8 8v24.5a8 8 0 0 1-8 8h-144a8 8 0 0 1-8-8z" stroke="#333" fill="#fff"/><use xlink:href="#s" transform="matrix(1,0,0,1,1280.489242436016,614.0000999999997) translate(31.574999999999996 18.275)"/><path d="M1041 984.5h57a12 12 0 0 0 12-12v-481a12 12 0 0 1 12-12h41.12" stroke="#333" fill="none"/><path d="M1041 985h-.5v-1h.5z" stroke="#333" stroke-width=".05" fill="#333"/><path d="M1177.88 479.5l-14.26 4.63v-9.26z" stroke="#333" fill="#333"/><path d="M1355.5 650.5v54.77a7.63 7.63 0 0 0 7.62 7.63" stroke="#333" fill="none"/><path d="M1356 650.5h-1v-.5h1z" stroke="#333" stroke-width=".05" fill="#333"/><path d="M1377.88 712.9l-14.26 4.63v-9.26z" stroke="#333" fill="#333"/><path d="M1380 694.3a8 8 0 0 1 8-8h144a8 8 0 0 1 8 8v37.2a8 8 0 0 1-8 8h-144a8 8 0 0 1-8-8z" stroke="#333" fill="#fff"/><use xlink:href="#t" transform="matrix(1,0,0,1,1385,691.3000499999998) translate(55.1 25.4)"/><path d="M1600 560v116.75a12 12 0 0 0 12 12h41.12" stroke="#333" fill="none"/><path d="M1600.5 560h-1v-.5h1z" stroke="#333" stroke-width=".05" fill="#333"/><path d="M1667.88 688.75l-14.26 4.63v-9.26z" stroke="#333" fill="#333"/><path d="M1670 667a8 8 0 0 1 8-8h144a8 8 0 0 1 8 8v43.5a8 8 0 0 1-8 8h-144a8 8 0 0 1-8-8z" stroke="#333" fill="#fff"/><use xlink:href="#u" transform="matrix(1,0,0,1,1675,664.0000999999997) translate(26.049999999999997 17.525)"/><use xlink:href="#v" transform="matrix(1,0,0,1,1675,664.0000999999997) translate(93.95 17.525)"/><use xlink:href="#w" transform="matrix(1,0,0,1,1675,664.0000999999997) translate(47.55 39.125)"/><path d="M1600 560v433.25a12 12 0 0 0 12 12h30.12" stroke="#333" fill="none"/><path d="M1600.5 560h-1v-.5h1z" stroke="#333" stroke-width=".05" fill="#333"/><path d="M1656.88 1005.25l-14.26 4.63v-9.26z" stroke="#333" fill="#333"/><path d="M1750 719.5v363.62" stroke="#333" fill="none"/><path d="M1750.5 719.5h-1v-.5h1z" stroke="#333" stroke-width=".05" fill="#333"/><path d="M1750 1097.88l-4.63-14.26h9.27z" stroke="#333" fill="#333"/><path d="M1660 988a8 8 0 0 1 8-8h144a8 8 0 0 1 8 8v34.5a8 8 0 0 1-8 8h-144a8 8 0 0 1-8-8z" stroke="#333" stroke-width="3" fill="#fff"/><use xlink:href="#x" transform="matrix(1,0,0,1,1665,985) translate(3.625 24.65)"/><use xlink:href="#y" transform="matrix(1,0,0,1,1665,985) translate(86.47500000000001 24.65)"/><path d="M1780 767a8 8 0 0 1 8-8h144a8 8 0 0 1 8 8v14.5a8 8 0 0 1-8 8h-144a8 8 0 0 1-8-8z" stroke="#333" fill="#fff"/><use xlink:href="#z" transform="matrix(1,0,0,1,1785,764.0000999999997) translate(40.525 15.7125)"/><path d="M1750 719.5v42.75a12 12 0 0 0 12 12h1.12" stroke="#333" fill="none"/><path d="M1750.5 719.5h-1v-.5h1z" stroke="#333" stroke-width=".05" fill="#333"/><path d="M1777.88 774.25l-14.26 4.63v-9.26z" stroke="#333" fill="#333"/><path d="M1670 1108a8 8 0 0 1 8-8h144a8 8 0 0 1 8 8v24a8 8 0 0 1-8 8h-144a8 8 0 0 1-8-8z" stroke="#333" fill="#fff"/><use xlink:href="#A" transform="matrix(1,0,0,1,1675,1105) translate(58.05 18.15)"/><path d="M1860 790.5v67a12 12 0 0 0 12 12h31.12" stroke="#333" fill="none"/><path d="M1860.5 790.5h-1v-.5h1z" stroke="#333" stroke-width=".05" fill="#333"/><path d="M1917.88 869.5l-14.26 4.63v-9.26z" stroke="#333" fill="#333"/><path d="M1920 857.5a8 8 0 0 1 8-8h144a8 8 0 0 1 8 8v24a8 8 0 0 1-8 8h-144a8 8 0 0 1-8-8z" stroke="#333" fill="#fff"/><use xlink:href="#B" transform="matrix(1,0,0,1,1925,854.5000499999999) translate(51.025 18.15)"/><path d="M1860 790.5v27a12 12 0 0 0 12 12h31.12" stroke="#333" fill="none"/><path d="M1860.5 790.5h-1v-.5h1z" stroke="#333" stroke-width=".05" fill="#333"/><path d="M1917.88 829.5l-14.26 4.63v-9.26z" stroke="#333" fill="#333"/><path d="M1920 817.5a8 8 0 0 1 8-8h144a8 8 0 0 1 8 8v24a8 8 0 0 1-8 8h-144a8 8 0 0 1-8-8z" stroke="#333" fill="#fff"/><use xlink:href="#C" transform="matrix(1,0,0,1,1925,814.5000499999999) translate(30.549999999999997 18.15)"/><path d="M1860 790.5v102.25a12 12 0 0 0 12 12h31.12" stroke="#333" fill="none"/><path d="M1860.5 790.5h-1v-.5h1z" stroke="#333" stroke-width=".05" fill="#333"/><path d="M1917.88 904.75l-14.26 4.63v-9.26z" stroke="#333" fill="#333"/><path d="M1920 897.5a8 8 0 0 1 8-8h144a8 8 0 0 1 8 8V912a8 8 0 0 1-8 8h-144a8 8 0 0 1-8-8z" stroke="#333" fill="#fff"/><use xlink:href="#D" transform="matrix(1,0,0,1,1925,894.5000499999999) translate(39.025 15.7125)"/><path d="M2000 921v41.25a12 12 0 0 0 12 12h11.12" stroke="#333" fill="none"/><path d="M2000.5 921h-1v-.5h1z" stroke="#333" stroke-width=".05" fill="#333"/><path d="M2037.88 974.25l-14.26 4.63v-9.26z" stroke="#333" fill="#333"/><path d="M2040 967.5a8 8 0 0 1 8-8h144a8 8 0 0 1 8 8V981a8 8 0 0 1-8 8h-144a8 8 0 0 1-8-8z" stroke="#333" fill="#cfe4ff"/><use xlink:href="#E" transform="matrix(1,0,0,1,2045,964.5000499999999) translate(33.099999999999994 15.65)"/><use xlink:href="#F" transform="matrix(1,0,0,1,2045,964.5000499999999) translate(74 15.65)"/><path d="M2120 990v14.75a5 5 0 0 0 5 5h1.13a3.87 3.87 0 0 1 3.87 3.87" stroke="#333" fill="none"/><path d="M2120.5 990h-1v-.5h1z" stroke="#333" stroke-width=".05" fill="#333"/><path d="M2130 1028.38l-4.64-14.26h9.28z" stroke="#333" fill="#333"/><path d="M2040 1038.5a8 8 0 0 1 8-8h164a8 8 0 0 1 8 8v13.5a8 8 0 0 1-8 8h-164a8 8 0 0 1-8-8z" stroke="#333" fill="#fff"/><use xlink:href="#G" transform="matrix(1,0,0,1,2045,1035.4999500000001) translate(6.574999999999989 15.65)"/><use xlink:href="#H" transform="matrix(1,0,0,1,2045,1035.4999500000001) translate(97.475 15.65)"/><path d="M2083.08 990v3.25a12 12 0 0 1-12 12h-233.2" stroke="#333" fill="none"/><path d="M2083.58 990h-1v-.5h1z" stroke="#333" stroke-width=".05" fill="#333"/><path d="M1823.12 1005.25l14.26-4.63v9.26z" stroke="#333" fill="#333"/><path d="M2130 1061v7.7a1.8 1.8 0 0 1-1.8 1.8h-1.82" stroke="#333" fill="none"/><path d="M2130.5 1061h-1v-.5h1z" stroke="#333" stroke-width=".05" fill="#333"/><path d="M2120.87 1079.14l3.77-14.52 7.8 5z" stroke="#333" fill="#333"/><path d="M2040 1089a8 8 0 0 1 8-8h144a8 8 0 0 1 8 8v13.5a8 8 0 0 1-8 8h-144a8 8 0 0 1-8-8z" stroke="#333" fill="#fff"/><use xlink:href="#I" transform="matrix(1,0,0,1,2045,1085.9999000000003) translate(13.449999999999996 15.65)"/><use xlink:href="#J" transform="matrix(1,0,0,1,2045,1085.9999000000003) translate(85.55000000000001 15.65)"/><path d="M1600 560v657.5a12 12 0 0 0 12 12h41.12" stroke="#333" fill="none"/><path d="M1600.5 560h-1v-.5h1z" stroke="#333" stroke-width=".05" fill="#333"/><path d="M1667.88 1229.5l-14.26 4.63v-9.27z" stroke="#333" fill="#333"/><path d="M1670 1217.5a8 8 0 0 1 8-8h144a8 8 0 0 1 8 8v24a8 8 0 0 1-8 8h-144a8 8 0 0 1-8-8z" stroke="#333" fill="#fff"/><use xlink:href="#K" transform="matrix(1,0,0,1,1675,1214.5000499999999) translate(31.574999999999996 18.15)"/><path d="M2220 561v547a12 12 0 0 1-12 12h-361.12" stroke="#333" fill="none"/><path d="M2220.5 561h-1v-.5h1z" stroke="#333" stroke-width=".05" fill="#333"/><path d="M1832.12 1120l14.26-4.63v9.27z" stroke="#333" fill="#333"/><path d="M2220 561v106a12 12 0 0 0 12 12h71.12" stroke="#333" fill="none"/><path d="M2220.5 561h-1v-.5h1z" stroke="#333" stroke-width=".05" fill="#333"/><path d="M2317.88 679l-14.26 4.63v-9.26z" stroke="#333" fill="#333"/><path d="M2320 667a8 8 0 0 1 8-8h144a8 8 0 0 1 8 8v24a8 8 0 0 1-8 8h-144a8 8 0 0 1-8-8z" stroke="#333" fill="#fff"/><use xlink:href="#L" transform="matrix(1,0,0,1,2325,664.0000999999997) translate(56.025 18.15)"/><path d="M2220 561v171.25a12 12 0 0 0 12 12h71.12" stroke="#333" fill="none"/><path d="M2220.5 561h-1v-.5h1z" stroke="#333" stroke-width=".05" fill="#333"/><path d="M2317.88 744.25l-14.26 4.63v-9.26z" stroke="#333" fill="#333"/><path d="M2320 727a8 8 0 0 1 8-8h144a8 8 0 0 1 8 8v34.5a8 8 0 0 1-8 8h-144a8 8 0 0 1-8-8z" stroke="#333" fill="#fff"/><use xlink:href="#M" transform="matrix(1,0,0,1,2325,724.0000999999997) translate(38.55 24.65)"/><path d="M2220 561v233.6a12 12 0 0 0 12 12h71.12" stroke="#333" fill="none"/><path d="M2220.5 561h-1v-.5h1z" stroke="#333" stroke-width=".05" fill="#333"/><path d="M2317.88 806.6l-14.26 4.63v-9.26z" stroke="#333" fill="#333"/><path d="M2320 799.85a8 8 0 0 1 8-8h144a8 8 0 0 1 8 8v13.5a8 8 0 0 1-8 8h-144a8 8 0 0 1-8-8z" stroke="#333" fill="#fff"/><use xlink:href="#N" transform="matrix(1,0,0,1,2325,796.8499750000001) translate(20.099999999999994 15.65)"/><use xlink:href="#O" transform="matrix(1,0,0,1,2325,796.8499750000001) translate(54.099999999999994 15.65)"/><use xlink:href="#P" transform="matrix(1,0,0,1,2325,796.8499750000001) translate(103 15.65)"/><path d="M1750 1141v17a12 12 0 0 0 12 12h121.12" stroke="#333" fill="none"/><path d="M1750.5 1141h-1v-.5h1z" stroke="#333" stroke-width=".05" fill="#333"/><path d="M1897.88 1170l-14.26 4.63v-9.27z" stroke="#333" fill="#333"/><path d="M1900 1148a8 8 0 0 1 8-8h144a8 8 0 0 1 8 8v44a8 8 0 0 1-8 8h-144a8 8 0 0 1-8-8z" stroke="#333" fill="#fff"/><use xlink:href="#Q" transform="matrix(1,0,0,1,1905,1145) translate(33.55 30.025)"/><use xlink:href="#o" transform="matrix(1,0,0,1,1905,1145) translate(62.55 30.025)"/><use xlink:href="#R" transform="matrix(1,0,0,1,1905,1145) translate(82.55 30.025)"/><path d="M2220 561v107a12 12 0 0 0 12 12h71.12" stroke="#333" fill="none"/><path d="M2220.5 561h-1v-.5h1z" stroke="#333" stroke-width=".05" fill="#333"/><path d="M2317.88 680l-14.26 4.63v-9.26z" stroke="#333" fill="#333"/><path d="M2320 668a8 8 0 0 1 8-8h144a8 8 0 0 1 8 8v24a8 8 0 0 1-8 8h-144a8 8 0 0 1-8-8z" stroke="#333" fill="#fff"/><use xlink:href="#S" transform="matrix(1,0,0,1,2325,665) translate(46.525 18.15)"/><path d="M1460 740.5v40.62" stroke="#333" fill="none"/><path d="M1460.5 740.5h-1v-.5h1z" stroke="#333" stroke-width=".05" fill="#333"/><path d="M1460 795.88l-4.63-14.26h9.27z" stroke="#333" fill="#333"/><path d="M1380 807.5a8 8 0 0 1 8-8h144a8 8 0 0 1 8 8v144a8 8 0 0 1-8 8h-144a8 8 0 0 1-8-8z" stroke="#333" stroke-width="4" fill="#fff"/><use xlink:href="#T" transform="matrix(1,0,0,1,1385,804.5000499999998) translate(2.5999999999999943 80.025)"/><use xlink:href="#U" transform="matrix(1,0,0,1,1385,804.5000499999998) translate(81.55 80.025)"/><path d="M1461 962v69.12M1459 962v69.12" stroke="#333" fill="none"/><path d="M1461.5 962h-1v-.5h1zM1459.5 962h-1v-.5h1z" stroke="#333" stroke-width=".05" fill="#333"/><path d="M1460 1045.88l-4.63-14.26h9.27z" stroke="#333" fill="#333"/><path d="M1380 1057.5a8 8 0 0 1 8-8h144a8 8 0 0 1 8 8v144a8 8 0 0 1-8 8h-144a8 8 0 0 1-8-8z" stroke="#333" stroke-width="4" fill="#fff"/><use xlink:href="#V" transform="matrix(1,0,0,1,1385,1054.5000499999999) translate(16.64999999999999 80.025)"/><use xlink:href="#W" transform="matrix(1,0,0,1,1385,1054.5000499999999) translate(87.5 80.025)"/><path d="M2481 744.25h27.5a12 12 0 0 1 12 12V1288a12 12 0 0 1-12 12H1472a12 12 0 0 1-12-12v-60.12" stroke="#333" fill="none"/><path d="M2481 744.75h-.5v-1h.5z" stroke="#333" stroke-width=".05" fill="#333"/><path d="M1460 1213.12l4.63 14.26h-9.27z" stroke="#333" fill="#333"/><path d="M2481 680h27.5a12 12 0 0 1 12 12v596a12 12 0 0 1-12 12H1472a12 12 0 0 1-12-12v-60.12" stroke="#333" fill="none"/><path d="M2481 680.5h-.5v-1h.5z" stroke="#333" stroke-width=".05" fill="#333"/><path d="M1460 1213.12l4.63 14.26h-9.27z" stroke="#333" fill="#333"/><path d="M1980 1201v4.9m0 4.9v9.8m0 4.9v9.8m0 4.9v9.8m0 4.9v9.8m0 4.9v9.8m0 4.9v9.8m0 4.9v9.8m0 4.9v9.8m0 4.9v9.8m0 4.9v4.9l-.15 1.88-.44 1.83-.7 1.75-.34.53m-4.38 4.38l-.53.33-1.74.7-1.82.45-1.88.15h-5m-5.02 0h-10.03m-5 0h-10.04m-5 0h-10.02m-5 0h-10.04m-5 0h-10.03m-5 0h-10.03m-5 0h-10.04m-5 0h-10.04m-5.02 0h-10.02m-5 0h-10.04m-5 0h-10.03m-5.03 0h-10.02m-5 0h-10.04m-5 0h-10.02m-5.02 0h-10.02m-5 0h-10.04m-5 0h-10.03m-5.02 0h-10.02m-5 0h-10.04m-5.02 0h-10.02m-5.02 0h-10.02m-5 0h-10.04m-5 0h-10.03m-5.02 0h-10.02m-5 0h-10.03m-5 0h-10.03m-5.02 0H1557m-5 0h-10.04m-5 0h-10.03m-5.02 0h-10m-5.02 0h-10.03m-5 0h-10.03m-5 0h-10.04m-5 0h-10.04m-5 0h-10.03m-5 0h-10.03m-5 0h-10.04m-5 0h-10.03m-5 0h-10.04m-5 0h-10.04m-5 0h-5.02l-1.88-.15-1.83-.44-1.75-.7-.53-.34m-4.38-4.38l-.33-.53-.7-1.74-.45-1.82-.15-1.88v-5.07m0-5.07v-10.15m0-5.06v-10.15m0-5.08v-10.14m0-5.07v-10.14m0-5.07v-10.16m0-5.07v-10.14m0-5.07v-10.15m0-5.06v-10.15m0-5.08v-10.14m0-5.07v-10.14m0-5.07v-10.16m0-5.07v-10.14m0-5.07v-10.15m0-5.06v-10.15m0-5.08v-10.14m0-5.07v-10.14m0-5.07v-10.16m0-5.07v-10.14m0-5.07v-10.15m0-5.06v-10.15m0-5.08v-10.14m0-5.07v-10.14m0-5.07v-10.16m0-5.07v-10.14m0-5.07V962.5m0-5.06V947.3m0-5.08v-10.14m0-5.07v-10.14m0-5.07v-10.16m0-5.07v-5.07l.15-1.88.44-1.83.7-1.75.34-.53m4.38-4.38l.53-.33 1.74-.7 1.82-.45 1.88-.15h3.37m3.37 0h3.38" stroke="#333" fill="none"/><path d="M1980.5 1201h-1v-.5h1z" stroke="#333" stroke-width=".05" fill="#333"/><path d="M1376.38 879.5l-14.26 4.63v-9.26z" stroke="#333" fill="#333"/><path d="M1041 879.5h316.3" stroke="#333" fill="none"/><path d="M1041 880h-.5v-1h.5z" stroke="#333" stroke-width=".05" fill="#333"/><path d="M1372.06 879.5l-14.26 4.63v-9.26z" stroke="#333" fill="#333"/><path d="M1041 769.5h156.25a12 12 0 0 1 12 12v86a12 12 0 0 0 12 12h140.37" stroke="#333" fill="none"/><path d="M1041 770h-.5v-1h.5z" stroke="#333" stroke-width=".05" fill="#333"/><path d="M1376.38 879.5l-14.26 4.63v-9.26z" stroke="#333" fill="#333"/><path d="M1041 659.5h104.74a12 12 0 0 0 12-12v-6.25a12 12 0 0 1 12-12h88.87" stroke="#333" fill="none"/><path d="M1041 660h-.5v-1h.5z" stroke="#333" stroke-width=".05" fill="#333"/><path d="M1273.37 629.25l-14.26 4.63v-9.26z" stroke="#333" fill="#333"/><path d="M1940 560v22.12" stroke="#333" fill="none"/><path d="M1940.5 560h-1v-.5h1z" stroke="#333" stroke-width=".05" fill="#333"/><path d="M1940 596.88l-4.63-14.26h9.27z" stroke="#333" fill="#333"/><path d="M1860 607a8 8 0 0 1 8-8h144a8 8 0 0 1 8 8v24a8 8 0 0 1-8 8h-144a8 8 0 0 1-8-8z" stroke="#333" fill="#fff"/><path d="M2011 590h16c4.97 0 9 4.03 9 9s-4.03 9-9 9h-16c-4.97 0-9-4.03-9-9s4.03-9 9-9z" fill="#979ea8"/><path d="M2011 592c-3.87 0-7 3.13-7 7s3.13 7 7 7h16c3.87 0 7-3.13 7-7s-3.13-7-7-7h-16z" fill="#dfe3e8"/><path d="M2026 611c6.63 0 12-5.37 12-12s-5.37-12-12-12-12 5.37-12 12 5.37 12 12 12z" fill="#2db539"/><use xlink:href="#X" transform="matrix(1,0,0,1,1865,604.0000999999997) translate(47.025 18.15)"/><path d="M2120 1111.5v9.38a12 12 0 0 0 12 12h42.5a5.5 5.5 0 0 1 5.5 5.5" stroke="#333" fill="none"/><path d="M2120.5 1111.5h-1v-.5h1z" stroke="#333" stroke-width=".05" fill="#333"/><path d="M2180 1153.13l-4.64-14.26h9.28z" stroke="#333" fill="#333"/><path d="M2100 1163.25a8 8 0 0 1 8-8h144a8 8 0 0 1 8 8v13.5a8 8 0 0 1-8 8h-144a8 8 0 0 1-8-8z" stroke="#333" fill="#fff"/><use xlink:href="#Y" transform="matrix(1,0,0,1,2105,1160.2499750000002) translate(42.599999999999994 15.65)"/><path d="M522 848a8 8 0 0 1 8-8h144a8 8 0 0 1 8 8v144a8 8 0 0 1-8 8H530a8 8 0 0 1-8-8z" stroke="#333" stroke-width="4" fill="#1071e5"/><use xlink:href="#Z" transform="matrix(1,0,0,1,526.9999500000005,845) translate(28.938802083333414 69.36197916666663)"/><use xlink:href="#aa" transform="matrix(1,0,0,1,526.9999500000005,845) translate(44.55078125000005 97.77343749999991)"/><path d="M522 1063.25a8 8 0 0 1 8-8h144a8 8 0 0 1 8 8v34a8 8 0 0 1-8 8H530a8 8 0 0 1-8-8z" stroke="#333" fill="#fff"/><use xlink:href="#d" transform="matrix(1,0,0,1,526.9999500000005,1060.2499750000002) translate(51.05 24.4)"/><path d="M522 1152.25a8 8 0 0 1 8-8h144a8 8 0 0 1 8 8v34a8 8 0 0 1-8 8H530a8 8 0 0 1-8-8z" stroke="#333" fill="#fff"/><use xlink:href="#ab" transform="matrix(1,0,0,1,526.9999500000005,1149.250075) translate(33.074999999999996 24.4)"/><use xlink:href="#w" transform="matrix(1,0,0,1,526.9999500000005,1149.250075) translate(62.025 24.4)"/><path d="M522 1241.25a8 8 0 0 1 8-8h144a8 8 0 0 1 8 8v34a8 8 0 0 1-8 8H530a8 8 0 0 1-8-8z" stroke="#333" fill="#fff"/><use xlink:href="#ac" transform="matrix(1,0,0,1,526.9999500000005,1238.2501749999997) translate(55.099999999999994 24.4)"/><path d="M522 1330.25a8 8 0 0 1 8-8h144a8 8 0 0 1 8 8v34a8 8 0 0 1-8 8H530a8 8 0 0 1-8-8z" stroke="#333" fill="#fff"/><use xlink:href="#ad" transform="matrix(1,0,0,1,526.9999500000005,1327.2502749999994) translate(56.55 24.4)"/><path d="M522 1446.75a8 8 0 0 1 8-8h144a8 8 0 0 1 8 8v34a8 8 0 0 1-8 8H530a8 8 0 0 1-8-8z" stroke="#333" fill="#fff"/><use xlink:href="#ae" transform="matrix(1,0,0,1,526.9999500000005,1443.7501249999998) translate(42.5 24.4)"/><path d="M683 1463.75h32.25a6.75 6.75 0 0 1 6.75 6.75 6.75 6.75 0 0 0 6.75 6.75h16.37" stroke="#333" fill="none"/><path d="M683 1464.25h-.5v-1h.5z" stroke="#333" stroke-width=".05" fill="#333"/><path d="M759.88 1477.25l-14.26 4.64v-9.3z" stroke="#333" fill="#333"/><path d="M762 1460.25a8 8 0 0 1 8-8h144a8 8 0 0 1 8 8v34a8 8 0 0 1-8 8H770a8 8 0 0 1-8-8z" stroke="#333" fill="#fff"/><use xlink:href="#af" transform="matrix(1,0,0,1,766.9999500000005,1457.2502749999994) translate(42.025 24.4)"/><path d="M762 1543.25a8 8 0 0 1 8-8h144a8 8 0 0 1 8 8v34a8 8 0 0 1-8 8H770a8 8 0 0 1-8-8z" stroke="#333" fill="#fff"/><use xlink:href="#ag" transform="matrix(1,0,0,1,766.9999500000005,1540.2499750000002) translate(22.525 24.4)"/><use xlink:href="#ah" transform="matrix(1,0,0,1,766.9999500000005,1540.2499750000002) translate(58.525 24.4)"/><path d="M522 1543.25a8 8 0 0 1 8-8h144a8 8 0 0 1 8 8v34a8 8 0 0 1-8 8H530a8 8 0 0 1-8-8z" stroke="#333" fill="#fff"/><use xlink:href="#ai" transform="matrix(1,0,0,1,526.9999500000005,1540.2499750000002) translate(38.575 24.4)"/><use xlink:href="#aj" transform="matrix(1,0,0,1,526.9999500000005,1540.2499750000002) translate(83.475 24.4)"/><path d="M519.5 920H492a12 12 0 0 0-12 12v225.25a12 12 0 0 0 12 12h13.12" stroke="#333" fill="none"/><path d="M520 920.5h-.5v-1h.5z" stroke="#333" stroke-width=".05" fill="#333"/><path d="M519.88 1169.25l-14.26 4.63v-9.27z" stroke="#333" fill="#333"/><path d="M519.5 920H492a12 12 0 0 0-12 12v136.25a12 12 0 0 0 12 12h13.12" stroke="#333" fill="none"/><path d="M520 920.5h-.5v-1h.5z" stroke="#333" stroke-width=".05" fill="#333"/><path d="M519.88 1080.25l-14.26 4.63v-9.27z" stroke="#333" fill="#333"/><path d="M519.5 920H492a12 12 0 0 0-12 12v314.25a12 12 0 0 0 12 12h13.12" stroke="#333" fill="none"/><path d="M520 920.5h-.5v-1h.5z" stroke="#333" stroke-width=".05" fill="#333"/><path d="M519.88 1258.25l-14.26 4.63v-9.27z" stroke="#333" fill="#333"/><path d="M519.5 920H492a12 12 0 0 0-12 12v403.25a12 12 0 0 0 12 12h13.12" stroke="#333" fill="none"/><path d="M520 920.5h-.5v-1h.5z" stroke="#333" stroke-width=".05" fill="#333"/><path d="M519.88 1347.25l-14.26 4.64v-9.3z" stroke="#333" fill="#333"/><path d="M519.5 920H492a12 12 0 0 0-12 12v519.75a12 12 0 0 0 12 12h13.12" stroke="#333" fill="none"/><path d="M520 920.5h-.5v-1h.5z" stroke="#333" stroke-width=".05" fill="#333"/><path d="M519.88 1463.75l-14.26 4.63v-9.27z" stroke="#333" fill="#333"/><path d="M683 1463.75h27a12 12 0 0 1 12 12v72.5a12 12 0 0 0 12 12h11.12" stroke="#333" fill="none"/><path d="M683 1464.25h-.5v-1h.5z" stroke="#333" stroke-width=".05" fill="#333"/><path d="M759.88 1560.25l-14.26 4.63v-9.27z" stroke="#333" fill="#333"/><path d="M519.5 920H492a12 12 0 0 0-12 12v616.25a12 12 0 0 0 12 12h13.12" stroke="#333" fill="none"/><path d="M520 920.5h-.5v-1h.5z" stroke="#333" stroke-width=".05" fill="#333"/><path d="M519.88 1560.25l-14.26 4.63v-9.27z" stroke="#333" fill="#333"/><path d="M522 1639.75a8 8 0 0 1 8-8h144a8 8 0 0 1 8 8v34a8 8 0 0 1-8 8H530a8 8 0 0 1-8-8z" stroke="#333" fill="#fff"/><use xlink:href="#ak" transform="matrix(1,0,0,1,526.9999500000005,1636.7498250000006) translate(30.599999999999994 24.4)"/><path d="M519.5 920H492a12 12 0 0 0-12 12v712.75a12 12 0 0 0 12 12h13.12" stroke="#333" fill="none"/><path d="M520 920.5h-.5v-1h.5z" stroke="#333" stroke-width=".05" fill="#333"/><path d="M519.88 1656.75l-14.26 4.63v-9.27z" stroke="#333" fill="#333"/><path d="M522 1736.25a8 8 0 0 1 8-8h144a8 8 0 0 1 8 8v34a8 8 0 0 1-8 8H530a8 8 0 0 1-8-8z" stroke="#333" fill="#fff"/><use xlink:href="#al" transform="matrix(1,0,0,1,526.9999500000005,1733.249675000001) translate(69.025 24.4)"/><path d="M519.5 920H492a12 12 0 0 0-12 12v809.25a12 12 0 0 0 12 12h13.12" stroke="#333" fill="none"/><path d="M520 920.5h-.5v-1h.5z" stroke="#333" stroke-width=".05" fill="#333"/><path d="M519.88 1753.25l-14.26 4.63v-9.27z" stroke="#333" fill="#333"/><path d="M683 1080.25h64.5a12 12 0 0 0 12-12V495.88" stroke="#1071e5" fill="none"/><path d="M683 1080.75h-.5v-1h.5z" stroke="#1071e5" stroke-width=".05" fill="#1071e5"/><path d="M759.5 481.12l4.63 14.26h-9.26z" stroke="#1071e5" fill="#1071e5"/><path d="M1831 1120h92a12 12 0 0 0 12-12v-50.75a12 12 0 0 1 12-12h76.12" stroke="#e81313" fill="none"/><path d="M1831 1120.5h-.5v-1h.5z" stroke="#e81313" stroke-width=".05" fill="#e81313"/><path d="M2037.88 1045.25l-14.26 4.63v-9.27z" stroke="#e81313" fill="#e81313"/><path d="M2557.5 829.35a8 8 0 0 1 8-8h144a8 8 0 0 1 8 8v144a8 8 0 0 1-8 8h-144a8 8 0 0 1-8-8z" stroke="#333" fill="#dedeff"/><g><use xlink:href="#am" transform="matrix(1,0,0,1,2562.5000999999975,826.350025) translate(11.024999999999999 80.025)"/><use xlink:href="#an" transform="matrix(1,0,0,1,2562.5000999999975,826.350025) translate(50.025 80.025)"/><use xlink:href="#ao" transform="matrix(1,0,0,1,2562.5000999999975,826.350025) translate(70.025 80.025)"/></g><path d="M2577.5 1050.35a8 8 0 0 1 8-8h144a8 8 0 0 1 8 8v24a8 8 0 0 1-8 8h-144a8 8 0 0 1-8-8z" stroke="#333" fill="#fff"/><g><use xlink:href="#ap" transform="matrix(1,0,0,1,2582.5000999999975,1047.3499250000002) translate(37.05 18.15)"/><use xlink:href="#aq" transform="matrix(1,0,0,1,2582.5000999999975,1047.3499250000002) translate(74.05 18.15)"/></g><path d="M2657.5 1083.35v62.12" stroke="#333" fill="none"/><path d="M2658 1083.36h-1v-.5h1z" stroke="#333" stroke-width=".05" fill="#333"/><path d="M2657.5 1160.23l-4.64-14.26h9.28z" stroke="#333" fill="#333"/><path d="M2577.5 1170.35a8 8 0 0 1 8-8h144a8 8 0 0 1 8 8v24a8 8 0 0 1-8 8h-144a8 8 0 0 1-8-8z" stroke="#333" fill="#fff"/><g><use xlink:href="#ar" transform="matrix(1,0,0,1,2582.5000999999975,1167.3499250000002) translate(24.525 18.15)"/><use xlink:href="#as" transform="matrix(1,0,0,1,2582.5000999999975,1167.3499250000002) translate(74.475 18.15)"/></g><path d="M2657.5 1203.35v55.52" stroke="#333" fill="none"/><path d="M2658 1203.36h-1v-.5h1z" stroke="#333" stroke-width=".05" fill="#333"/><path d="M2657.5 1273.63l-4.64-14.26h9.28z" stroke="#333" fill="#333"/><path d="M2577.5 1283.75a8 8 0 0 1 8-8h144a8 8 0 0 1 8 8v37.2a8 8 0 0 1-8 8h-144a8 8 0 0 1-8-8z" stroke="#333" fill="#fff"/><g><use xlink:href="#at" transform="matrix(1,0,0,1,2582.5000999999975,1280.7499250000003) translate(7.099999999999994 25.4)"/><use xlink:href="#au" transform="matrix(1,0,0,1,2582.5000999999975,1280.7499250000003) translate(98.95 25.4)"/></g><path d="M2637.5 982.35v19.5a10 10 0 0 0 10 10 10 10 0 0 1 10 10v3.62" stroke="#333" fill="none"/><path d="M2638 982.36h-1v-.5h1z" stroke="#333" stroke-width=".05" fill="#333"/><path d="M2657.5 1040.23l-4.64-14.26h9.28z" stroke="#333" fill="#333"/><path d="M923 1560.25h1823a12 12 0 0 0 12-12v-634.9a12 12 0 0 0-12-12h-11.62" stroke="#333" fill="none"/><path d="M923 1560.75h-.5v-1h.5z" stroke="#333" stroke-width=".05" fill="#333"/><path d="M2719.62 901.35l14.26-4.63v9.26z" stroke="#333" fill="#333"/><defs><path fill="#fff" d="M300-715l-23 114 39 93 38-93-23-114h271l-99 122-110 235v255l59 118H154l59-118v-254L99-591-1-715h301" id="av"/><path fill="#fff" d="M272-575l-51 102v385l49 103H17L67-87v-386L17-575h255" id="aw"/><g id="a"><use transform="matrix(0.029111111111111105,0,0,0.029111111111111105,0,0)" xlink:href="#av"/><use transform="matrix(0.029111111111111105,0,0,0.029111111111111105,16.273111111111106,0)" xlink:href="#aw"/></g><path fill="#333" d="M30 0v-248h33v221h125V0H30" id="ax"/><path fill="#333" d="M100-194c62-1 85 37 85 99 1 63-27 99-86 99S16-35 15-95c0-66 28-99 85-99zM99-20c44 1 53-31 53-75 0-43-8-75-51-75s-53 32-53 75 10 74 51 75" id="ay"/><path fill="#333" d="M177-190C167-65 218 103 67 71c-23-6-38-20-44-43l32-5c15 47 100 32 89-28v-30C133-14 115 1 83 1 29 1 15-40 15-95c0-56 16-97 71-98 29-1 48 16 59 35 1-10 0-23 2-32h30zM94-22c36 0 50-32 50-73 0-42-14-75-50-75-39 0-46 34-46 75s6 73 46 73" id="az"/><path fill="#333" d="M24-231v-30h32v30H24zM24 0v-190h32V0H24" id="aA"/><path fill="#333" d="M117-194c89-4 53 116 60 194h-32v-121c0-31-8-49-39-48C34-167 62-67 57 0H25l-1-190h30c1 10-1 24 2 32 11-22 29-35 61-36" id="aB"/><g id="b"><use transform="matrix(0.05,0,0,0.05,0,0)" xlink:href="#ax"/><use transform="matrix(0.05,0,0,0.05,10,0)" xlink:href="#ay"/><use transform="matrix(0.05,0,0,0.05,20,0)" xlink:href="#az"/><use transform="matrix(0.05,0,0,0.05,30,0)" xlink:href="#aA"/><use transform="matrix(0.05,0,0,0.05,33.95,0)" xlink:href="#aB"/></g><path fill="#333" d="M30-248c118-7 216 8 213 122C240-48 200 0 122 0H30v-248zM63-27c89 8 146-16 146-99s-60-101-146-95v194" id="aC"/><path fill="#333" d="M141-36C126-15 110 5 73 4 37 3 15-17 15-53c-1-64 63-63 125-63 3-35-9-54-41-54-24 1-41 7-42 31l-33-3c5-37 33-52 76-52 45 0 72 20 72 64v82c-1 20 7 32 28 27v20c-31 9-61-2-59-35zM48-53c0 20 12 33 32 33 41-3 63-29 60-74-43 2-92-5-92 41" id="aD"/><path fill="#333" d="M135-143c-3-34-86-38-87 0 15 53 115 12 119 90S17 21 10-45l28-5c4 36 97 45 98 0-10-56-113-15-118-90-4-57 82-63 122-42 12 7 21 19 24 35" id="aE"/><path fill="#333" d="M106-169C34-169 62-67 57 0H25v-261h32l-1 103c12-21 28-36 61-36 89 0 53 116 60 194h-32v-121c2-32-8-49-39-48" id="aF"/><path fill="#333" d="M115-194c53 0 69 39 70 98 0 66-23 100-70 100C84 3 66-7 56-30L54 0H23l1-261h32v101c10-23 28-34 59-34zm-8 174c40 0 45-34 45-75 0-40-5-75-45-74-42 0-51 32-51 76 0 43 10 73 51 73" id="aG"/><path fill="#333" d="M114-163C36-179 61-72 57 0H25l-1-190h30c1 12-1 29 2 39 6-27 23-49 58-41v29" id="aH"/><path fill="#333" d="M85-194c31 0 48 13 60 33l-1-100h32l1 261h-30c-2-10 0-23-3-31C134-8 116 4 85 4 32 4 16-35 15-94c0-66 23-100 70-100zm9 24c-40 0-46 34-46 75 0 40 6 74 45 74 42 0 51-32 51-76 0-42-9-74-50-73" id="aI"/><g id="c"><use transform="matrix(0.05,0,0,0.05,0,0)" xlink:href="#aC"/><use transform="matrix(0.05,0,0,0.05,12.950000000000001,0)" xlink:href="#aD"/><use transform="matrix(0.05,0,0,0.05,22.950000000000003,0)" xlink:href="#aE"/><use transform="matrix(0.05,0,0,0.05,31.950000000000003,0)" xlink:href="#aF"/><use transform="matrix(0.05,0,0,0.05,41.95,0)" xlink:href="#aG"/><use transform="matrix(0.05,0,0,0.05,51.95,0)" xlink:href="#ay"/><use transform="matrix(0.05,0,0,0.05,61.95,0)" xlink:href="#aD"/><use transform="matrix(0.05,0,0,0.05,71.95,0)" xlink:href="#aH"/><use transform="matrix(0.05,0,0,0.05,77.9,0)" xlink:href="#aI"/></g><path fill="#333" d="M197 0v-115H63V0H30v-248h33v105h134v-105h34V0h-34" id="aJ"/><path fill="#333" d="M210-169c-67 3-38 105-44 169h-31v-121c0-29-5-50-35-48C34-165 62-65 56 0H25l-1-190h30c1 10-1 24 2 32 10-44 99-50 107 0 11-21 27-35 58-36 85-2 47 119 55 194h-31v-121c0-29-5-49-35-48" id="aK"/><path fill="#333" d="M100-194c63 0 86 42 84 106H49c0 40 14 67 53 68 26 1 43-12 49-29l28 8c-11 28-37 45-77 45C44 4 14-33 15-96c1-61 26-98 85-98zm52 81c6-60-76-77-97-28-3 7-6 17-6 28h103" id="aL"/><g id="d"><use transform="matrix(0.05,0,0,0.05,0,0)" xlink:href="#aJ"/><use transform="matrix(0.05,0,0,0.05,12.950000000000001,0)" xlink:href="#ay"/><use transform="matrix(0.05,0,0,0.05,22.950000000000003,0)" xlink:href="#aK"/><use transform="matrix(0.05,0,0,0.05,37.900000000000006,0)" xlink:href="#aL"/></g><path fill="#333" d="M185-189c-5-48-123-54-124 2 14 75 158 14 163 119 3 78-121 87-175 55-17-10-28-26-33-46l33-7c5 56 141 63 141-1 0-78-155-14-162-118-5-82 145-84 179-34 5 7 8 16 11 25" id="aM"/><path fill="#333" d="M115-194c55 1 70 41 70 98S169 2 115 4C84 4 66-9 55-30l1 105H24l-1-265h31l2 30c10-21 28-34 59-34zm-8 174c40 0 45-34 45-75s-6-73-45-74c-42 0-51 32-51 76 0 43 10 73 51 73" id="aN"/><path fill="#333" d="M59-47c-2 24 18 29 38 22v24C64 9 27 4 27-40v-127H5v-23h24l9-43h21v43h35v23H59v120" id="aO"/><g id="e"><use transform="matrix(0.05,0,0,0.05,0,0)" xlink:href="#aM"/><use transform="matrix(0.05,0,0,0.05,12,0)" xlink:href="#aF"/><use transform="matrix(0.05,0,0,0.05,22,0)" xlink:href="#aA"/><use transform="matrix(0.05,0,0,0.05,25.950000000000003,0)" xlink:href="#aN"/><use transform="matrix(0.05,0,0,0.05,35.95,0)" xlink:href="#aK"/><use transform="matrix(0.05,0,0,0.05,50.900000000000006,0)" xlink:href="#aL"/><use transform="matrix(0.05,0,0,0.05,60.900000000000006,0)" xlink:href="#aB"/><use transform="matrix(0.05,0,0,0.05,70.9,0)" xlink:href="#aO"/></g><path fill="#333" d="M84 4C-5 8 30-112 23-190h32v120c0 31 7 50 39 49 72-2 45-101 50-169h31l1 190h-30c-1-10 1-25-2-33-11 22-28 36-60 37" id="aP"/><g id="f"><use transform="matrix(0.05,0,0,0.05,0,0)" xlink:href="#aE"/><use transform="matrix(0.05,0,0,0.05,9,0)" xlink:href="#aO"/><use transform="matrix(0.05,0,0,0.05,14,0)" xlink:href="#aD"/><use transform="matrix(0.05,0,0,0.05,24,0)" xlink:href="#aO"/><use transform="matrix(0.05,0,0,0.05,29,0)" xlink:href="#aP"/><use transform="matrix(0.05,0,0,0.05,39,0)" xlink:href="#aE"/></g><g id="g"><use transform="matrix(0.05,0,0,0.05,0,0)" xlink:href="#aM"/><use transform="matrix(0.05,0,0,0.05,12,0)" xlink:href="#aF"/><use transform="matrix(0.05,0,0,0.05,22,0)" xlink:href="#aD"/><use transform="matrix(0.05,0,0,0.05,32,0)" xlink:href="#aH"/><use transform="matrix(0.05,0,0,0.05,37.95,0)" xlink:href="#aL"/></g><path fill="#333" d="M266 0h-40l-56-210L115 0H75L2-248h35L96-30l15-64 43-154h32l59 218 59-218h35" id="aQ"/><g id="h"><use transform="matrix(0.05,0,0,0.05,0,0)" xlink:href="#aQ"/><use transform="matrix(0.05,0,0,0.05,16.95,0)" xlink:href="#aA"/><use transform="matrix(0.05,0,0,0.05,20.9,0)" xlink:href="#aE"/><use transform="matrix(0.05,0,0,0.05,29.899999999999995,0)" xlink:href="#aF"/></g><g id="i"><use transform="matrix(0.05,0,0,0.05,0,0)" xlink:href="#ax"/><use transform="matrix(0.05,0,0,0.05,10,0)" xlink:href="#aA"/><use transform="matrix(0.05,0,0,0.05,13.949999999999998,0)" xlink:href="#aE"/><use transform="matrix(0.05,0,0,0.05,22.95,0)" xlink:href="#aO"/></g><path fill="#333" d="M33 0v-248h34V0H33" id="aR"/><g id="j"><use transform="matrix(0.05,0,0,0.05,0,0)" xlink:href="#aM"/><use transform="matrix(0.05,0,0,0.05,12,0)" xlink:href="#aA"/><use transform="matrix(0.05,0,0,0.05,15.949999999999998,0)" xlink:href="#az"/><use transform="matrix(0.05,0,0,0.05,25.950000000000003,0)" xlink:href="#aB"/><use transform="matrix(0.05,0,0,0.05,35.95,0)" xlink:href="#aR"/><use transform="matrix(0.05,0,0,0.05,40.95,0)" xlink:href="#aB"/></g><g id="k"><use transform="matrix(0.05,0,0,0.05,0,0)" xlink:href="#ax"/><use transform="matrix(0.05,0,0,0.05,10,0)" xlink:href="#ay"/><use transform="matrix(0.05,0,0,0.05,20,0)" xlink:href="#az"/><use transform="matrix(0.05,0,0,0.05,30,0)" xlink:href="#aR"/><use transform="matrix(0.05,0,0,0.05,35,0)" xlink:href="#aB"/></g><path fill="#333" d="M160-131c35 5 61 23 61 61C221 17 115-2 30 0v-248c76 3 177-17 177 60 0 33-19 50-47 57zm-97-11c50-1 110 9 110-42 0-47-63-36-110-37v79zm0 115c55-2 124 14 124-45 0-56-70-42-124-44v89" id="aS"/><g id="l"><use transform="matrix(0.05,0,0,0.05,0,0)" xlink:href="#aS"/><use transform="matrix(0.05,0,0,0.05,12,0)" xlink:href="#aH"/><use transform="matrix(0.05,0,0,0.05,17.95,0)" xlink:href="#aD"/><use transform="matrix(0.05,0,0,0.05,27.950000000000003,0)" xlink:href="#aB"/><use transform="matrix(0.05,0,0,0.05,37.95,0)" xlink:href="#aI"/><use transform="matrix(0.05,0,0,0.05,47.95,0)" xlink:href="#aE"/></g><path fill="#333" d="M30-248c87 1 191-15 191 75 0 78-77 80-158 76V0H30v-248zm33 125c57 0 124 11 124-50 0-59-68-47-124-48v98" id="aT"/><g id="m"><use transform="matrix(0.05,0,0,0.05,0,0)" xlink:href="#aT"/><use transform="matrix(0.05,0,0,0.05,12,0)" xlink:href="#aH"/><use transform="matrix(0.05,0,0,0.05,17.95,0)" xlink:href="#ay"/><use transform="matrix(0.05,0,0,0.05,27.950000000000003,0)" xlink:href="#aK"/><use transform="matrix(0.05,0,0,0.05,42.9,0)" xlink:href="#ay"/><use transform="matrix(0.05,0,0,0.05,52.900000000000006,0)" xlink:href="#aO"/><use transform="matrix(0.05,0,0,0.05,57.900000000000006,0)" xlink:href="#aA"/><use transform="matrix(0.05,0,0,0.05,61.85,0)" xlink:href="#ay"/><use transform="matrix(0.05,0,0,0.05,71.85,0)" xlink:href="#aB"/><use transform="matrix(0.05,0,0,0.05,81.85,0)" xlink:href="#aE"/></g><path fill="#333" d="M233-177c-1 41-23 64-60 70L243 0h-38l-65-103H63V0H30v-248c88 3 205-21 203 71zM63-129c60-2 137 13 137-47 0-61-80-42-137-45v92" id="aU"/><path fill="#333" d="M24 0v-261h32V0H24" id="aV"/><g id="n"><use transform="matrix(0.05,0,0,0.05,0,0)" xlink:href="#aU"/><use transform="matrix(0.05,0,0,0.05,12.950000000000001,0)" xlink:href="#aL"/><use transform="matrix(0.05,0,0,0.05,22.950000000000003,0)" xlink:href="#aV"/><use transform="matrix(0.05,0,0,0.05,26.900000000000002,0)" xlink:href="#aD"/><use transform="matrix(0.05,0,0,0.05,36.900000000000006,0)" xlink:href="#aO"/><use transform="matrix(0.05,0,0,0.05,41.900000000000006,0)" xlink:href="#aL"/><use transform="matrix(0.05,0,0,0.05,51.900000000000006,0)" xlink:href="#aI"/></g><g id="o"><use transform="matrix(0.05,0,0,0.05,0,0)" xlink:href="#aO"/><use transform="matrix(0.05,0,0,0.05,5,0)" xlink:href="#ay"/></g><path fill="#333" d="M179-190L93 31C79 59 56 82 12 73V49c39 6 53-20 64-50L1-190h34L92-34l54-156h33" id="aW"/><g id="p"><use transform="matrix(0.05,0,0,0.05,0,0)" xlink:href="#aW"/><use transform="matrix(0.05,0,0,0.05,9,0)" xlink:href="#ay"/><use transform="matrix(0.05,0,0,0.05,19,0)" xlink:href="#aP"/><use transform="matrix(0.05,0,0,0.05,29,0)" xlink:href="#aH"/></g><path fill="#333" d="M96-169c-40 0-48 33-48 73s9 75 48 75c24 0 41-14 43-38l32 2c-6 37-31 61-74 61-59 0-76-41-82-99-10-93 101-131 147-64 4 7 5 14 7 22l-32 3c-4-21-16-35-41-35" id="aX"/><g id="q"><use transform="matrix(0.05,0,0,0.05,0,0)" xlink:href="#aE"/><use transform="matrix(0.05,0,0,0.05,9,0)" xlink:href="#aL"/><use transform="matrix(0.05,0,0,0.05,19,0)" xlink:href="#aD"/><use transform="matrix(0.05,0,0,0.05,29,0)" xlink:href="#aH"/><use transform="matrix(0.05,0,0,0.05,34.95,0)" xlink:href="#aX"/><use transform="matrix(0.05,0,0,0.05,43.95,0)" xlink:href="#aF"/></g><g id="r"><use transform="matrix(0.05,0,0,0.05,0,0)" xlink:href="#aM"/><use transform="matrix(0.05,0,0,0.05,12,0)" xlink:href="#aL"/><use transform="matrix(0.05,0,0,0.05,22,0)" xlink:href="#aD"/><use transform="matrix(0.05,0,0,0.05,32,0)" xlink:href="#aH"/><use transform="matrix(0.05,0,0,0.05,37.95,0)" xlink:href="#aX"/><use transform="matrix(0.05,0,0,0.05,46.95,0)" xlink:href="#aF"/><use transform="matrix(0.05,0,0,0.05,56.95,0)" xlink:href="#aS"/><use transform="matrix(0.05,0,0,0.05,68.95,0)" xlink:href="#aD"/><use transform="matrix(0.05,0,0,0.05,78.95,0)" xlink:href="#aH"/></g><path fill="#333" d="M212-179c-10-28-35-45-73-45-59 0-87 40-87 99 0 60 29 101 89 101 43 0 62-24 78-52l27 14C228-24 195 4 139 4 59 4 22-46 18-125c-6-104 99-153 187-111 19 9 31 26 39 46" id="aY"/><g id="s"><use transform="matrix(0.05,0,0,0.05,0,0)" xlink:href="#aY"/><use transform="matrix(0.05,0,0,0.05,12.950000000000001,0)" xlink:href="#aD"/><use transform="matrix(0.05,0,0,0.05,22.950000000000003,0)" xlink:href="#aO"/><use transform="matrix(0.05,0,0,0.05,27.950000000000003,0)" xlink:href="#aL"/><use transform="matrix(0.05,0,0,0.05,37.95,0)" xlink:href="#az"/><use transform="matrix(0.05,0,0,0.05,47.95,0)" xlink:href="#ay"/><use transform="matrix(0.05,0,0,0.05,57.95,0)" xlink:href="#aH"/><use transform="matrix(0.05,0,0,0.05,63.900000000000006,0)" xlink:href="#aA"/><use transform="matrix(0.05,0,0,0.05,67.85000000000001,0)" xlink:href="#aD"/><use transform="matrix(0.05,0,0,0.05,77.85000000000001,0)" xlink:href="#aE"/></g><path fill="#333" d="M63-220v92h138v28H63V0H30v-248h175v28H63" id="aZ"/><g id="t"><use transform="matrix(0.05,0,0,0.05,0,0)" xlink:href="#aZ"/><use transform="matrix(0.05,0,0,0.05,10.950000000000001,0)" xlink:href="#aA"/><use transform="matrix(0.05,0,0,0.05,14.9,0)" xlink:href="#aV"/><use transform="matrix(0.05,0,0,0.05,18.85,0)" xlink:href="#aO"/><use transform="matrix(0.05,0,0,0.05,23.85,0)" xlink:href="#aH"/><use transform="matrix(0.05,0,0,0.05,29.8,0)" xlink:href="#ay"/></g><g id="u"><use transform="matrix(0.05,0,0,0.05,0,0)" xlink:href="#aU"/><use transform="matrix(0.05,0,0,0.05,12.950000000000001,0)" xlink:href="#aL"/><use transform="matrix(0.05,0,0,0.05,22.950000000000003,0)" xlink:href="#aO"/><use transform="matrix(0.05,0,0,0.05,27.950000000000003,0)" xlink:href="#aP"/><use transform="matrix(0.05,0,0,0.05,37.95,0)" xlink:href="#aH"/><use transform="matrix(0.05,0,0,0.05,43.900000000000006,0)" xlink:href="#aB"/><use transform="matrix(0.05,0,0,0.05,53.900000000000006,0)" xlink:href="#aE"/></g><g id="v"><use transform="matrix(0.05,0,0,0.05,0,0)" xlink:href="#aD"/><use transform="matrix(0.05,0,0,0.05,10,0)" xlink:href="#aB"/><use transform="matrix(0.05,0,0,0.05,20,0)" xlink:href="#aI"/></g><path fill="#333" d="M140-251c81 0 123 46 123 126C263-46 219 4 140 4 59 4 17-45 17-125s42-126 123-126zm0 227c63 0 89-41 89-101s-29-99-89-99c-61 0-89 39-89 99S79-25 140-24" id="ba"/><g id="w"><use transform="matrix(0.05,0,0,0.05,0,0)" xlink:href="#ba"/><use transform="matrix(0.05,0,0,0.05,14,0)" xlink:href="#aH"/><use transform="matrix(0.05,0,0,0.05,19.95,0)" xlink:href="#aI"/><use transform="matrix(0.05,0,0,0.05,29.950000000000003,0)" xlink:href="#aL"/><use transform="matrix(0.05,0,0,0.05,39.95,0)" xlink:href="#aH"/><use transform="matrix(0.05,0,0,0.05,45.900000000000006,0)" xlink:href="#aE"/></g><g id="x"><use transform="matrix(0.05,0,0,0.05,0,0)" xlink:href="#aY"/><use transform="matrix(0.05,0,0,0.05,12.950000000000001,0)" xlink:href="#aP"/><use transform="matrix(0.05,0,0,0.05,22.950000000000003,0)" xlink:href="#aE"/><use transform="matrix(0.05,0,0,0.05,31.950000000000003,0)" xlink:href="#aO"/><use transform="matrix(0.05,0,0,0.05,36.95,0)" xlink:href="#ay"/><use transform="matrix(0.05,0,0,0.05,46.95,0)" xlink:href="#aK"/><use transform="matrix(0.05,0,0,0.05,61.900000000000006,0)" xlink:href="#aL"/><use transform="matrix(0.05,0,0,0.05,71.9,0)" xlink:href="#aH"/></g><path fill="#333" d="M108 0H70L1-190h34L89-25l56-165h34" id="bb"/><g id="y"><use transform="matrix(0.05,0,0,0.05,0,0)" xlink:href="#aM"/><use transform="matrix(0.05,0,0,0.05,12,0)" xlink:href="#aL"/><use transform="matrix(0.05,0,0,0.05,22,0)" xlink:href="#aH"/><use transform="matrix(0.05,0,0,0.05,27.950000000000003,0)" xlink:href="#bb"/><use transform="matrix(0.05,0,0,0.05,36.95,0)" xlink:href="#aA"/><use transform="matrix(0.05,0,0,0.05,40.900000000000006,0)" xlink:href="#aX"/><use transform="matrix(0.05,0,0,0.05,49.900000000000006,0)" xlink:href="#aL"/></g><g id="z"><use transform="matrix(0.05,0,0,0.05,0,0)" xlink:href="#aM"/><use transform="matrix(0.05,0,0,0.05,12,0)" xlink:href="#aL"/><use transform="matrix(0.05,0,0,0.05,22,0)" xlink:href="#aX"/><use transform="matrix(0.05,0,0,0.05,31,0)" xlink:href="#aO"/><use transform="matrix(0.05,0,0,0.05,36,0)" xlink:href="#aA"/><use transform="matrix(0.05,0,0,0.05,39.95,0)" xlink:href="#ay"/><use transform="matrix(0.05,0,0,0.05,49.95,0)" xlink:href="#aB"/><use transform="matrix(0.05,0,0,0.05,59.95,0)" xlink:href="#aE"/></g><g id="A"><use transform="matrix(0.05,0,0,0.05,0,0)" xlink:href="#aY"/><use transform="matrix(0.05,0,0,0.05,12.950000000000001,0)" xlink:href="#aD"/><use transform="matrix(0.05,0,0,0.05,22.950000000000003,0)" xlink:href="#aH"/><use transform="matrix(0.05,0,0,0.05,28.900000000000002,0)" xlink:href="#aO"/></g><g id="B"><use transform="matrix(0.05,0,0,0.05,0,0)" xlink:href="#aM"/><use transform="matrix(0.05,0,0,0.05,12,0)" xlink:href="#aF"/><use transform="matrix(0.05,0,0,0.05,22,0)" xlink:href="#aA"/><use transform="matrix(0.05,0,0,0.05,25.950000000000003,0)" xlink:href="#aN"/><use transform="matrix(0.05,0,0,0.05,35.95,0)" xlink:href="#aN"/><use transform="matrix(0.05,0,0,0.05,45.95,0)" xlink:href="#aL"/><use transform="matrix(0.05,0,0,0.05,55.95,0)" xlink:href="#aI"/></g><g id="C"><use transform="matrix(0.05,0,0,0.05,0,0)" xlink:href="#aT"/><use transform="matrix(0.05,0,0,0.05,12,0)" xlink:href="#aH"/><use transform="matrix(0.05,0,0,0.05,17.95,0)" xlink:href="#ay"/><use transform="matrix(0.05,0,0,0.05,27.950000000000003,0)" xlink:href="#aE"/><use transform="matrix(0.05,0,0,0.05,36.95,0)" xlink:href="#aL"/><use transform="matrix(0.05,0,0,0.05,46.95,0)" xlink:href="#aE"/><use transform="matrix(0.05,0,0,0.05,55.95,0)" xlink:href="#aE"/><use transform="matrix(0.05,0,0,0.05,64.95,0)" xlink:href="#aA"/><use transform="matrix(0.05,0,0,0.05,68.9,0)" xlink:href="#aB"/><use transform="matrix(0.05,0,0,0.05,78.9,0)" xlink:href="#az"/></g><g id="D"><use transform="matrix(0.05,0,0,0.05,0,0)" xlink:href="#aX"/><use transform="matrix(0.05,0,0,0.05,9,0)" xlink:href="#aD"/><use transform="matrix(0.05,0,0,0.05,19,0)" xlink:href="#aB"/><use transform="matrix(0.05,0,0,0.05,29,0)" xlink:href="#aX"/><use transform="matrix(0.05,0,0,0.05,38,0)" xlink:href="#aL"/><use transform="matrix(0.05,0,0,0.05,48,0)" xlink:href="#aV"/><use transform="matrix(0.05,0,0,0.05,51.95,0)" xlink:href="#aL"/><use transform="matrix(0.05,0,0,0.05,61.95,0)" xlink:href="#aI"/></g><path fill="#333" d="M206 0h-36l-40-164L89 0H53L-1-190h32L70-26l43-164h34l41 164 42-164h31" id="bc"/><g id="E"><use transform="matrix(0.05,0,0,0.05,0,0)" xlink:href="#bb"/><use transform="matrix(0.05,0,0,0.05,9,0)" xlink:href="#aA"/><use transform="matrix(0.05,0,0,0.05,12.949999999999998,0)" xlink:href="#aL"/><use transform="matrix(0.05,0,0,0.05,22.95,0)" xlink:href="#bc"/></g><g id="F"><use transform="matrix(0.05,0,0,0.05,0,0)" xlink:href="#aI"/><use transform="matrix(0.05,0,0,0.05,10,0)" xlink:href="#aL"/><use transform="matrix(0.05,0,0,0.05,20,0)" xlink:href="#aO"/><use transform="matrix(0.05,0,0,0.05,25,0)" xlink:href="#aD"/><use transform="matrix(0.05,0,0,0.05,35,0)" xlink:href="#aA"/><use transform="matrix(0.05,0,0,0.05,38.95,0)" xlink:href="#aV"/></g><g id="G"><use transform="matrix(0.05,0,0,0.05,0,0)" xlink:href="#aM"/><use transform="matrix(0.05,0,0,0.05,12,0)" xlink:href="#aF"/><use transform="matrix(0.05,0,0,0.05,22,0)" xlink:href="#aA"/><use transform="matrix(0.05,0,0,0.05,25.950000000000003,0)" xlink:href="#aN"/><use transform="matrix(0.05,0,0,0.05,35.95,0)" xlink:href="#aN"/><use transform="matrix(0.05,0,0,0.05,45.95,0)" xlink:href="#aK"/><use transform="matrix(0.05,0,0,0.05,60.900000000000006,0)" xlink:href="#aL"/><use transform="matrix(0.05,0,0,0.05,70.9,0)" xlink:href="#aB"/><use transform="matrix(0.05,0,0,0.05,80.9,0)" xlink:href="#aO"/></g><path fill="#333" d="M205 0l-28-72H64L36 0H1l101-248h38L239 0h-34zm-38-99l-47-123c-12 45-31 82-46 123h93" id="bd"/><g id="H"><use transform="matrix(0.05,0,0,0.05,0,0)" xlink:href="#bd"/><use transform="matrix(0.05,0,0,0.05,12,0)" xlink:href="#aI"/><use transform="matrix(0.05,0,0,0.05,22,0)" xlink:href="#aI"/><use transform="matrix(0.05,0,0,0.05,32,0)" xlink:href="#aH"/><use transform="matrix(0.05,0,0,0.05,37.95,0)" xlink:href="#aL"/><use transform="matrix(0.05,0,0,0.05,47.95,0)" xlink:href="#aE"/><use transform="matrix(0.05,0,0,0.05,56.95,0)" xlink:href="#aE"/></g><path fill="#333" d="M127-220V0H93v-220H8v-28h204v28h-85" id="be"/><g id="I"><use transform="matrix(0.05,0,0,0.05,0,0)" xlink:href="#be"/><use transform="matrix(0.05,0,0,0.05,10.3,0)" xlink:href="#aA"/><use transform="matrix(0.05,0,0,0.05,14.25,0)" xlink:href="#aK"/><use transform="matrix(0.05,0,0,0.05,29.200000000000003,0)" xlink:href="#aL"/><use transform="matrix(0.05,0,0,0.05,39.2,0)" xlink:href="#aV"/><use transform="matrix(0.05,0,0,0.05,43.150000000000006,0)" xlink:href="#aA"/><use transform="matrix(0.05,0,0,0.05,47.10000000000001,0)" xlink:href="#aB"/><use transform="matrix(0.05,0,0,0.05,57.1,0)" xlink:href="#aL"/></g><g id="J"><use transform="matrix(0.05,0,0,0.05,0,0)" xlink:href="#aM"/><use transform="matrix(0.05,0,0,0.05,12,0)" xlink:href="#aO"/><use transform="matrix(0.05,0,0,0.05,17,0)" xlink:href="#aD"/><use transform="matrix(0.05,0,0,0.05,27,0)" xlink:href="#aO"/><use transform="matrix(0.05,0,0,0.05,32,0)" xlink:href="#aP"/><use transform="matrix(0.05,0,0,0.05,42,0)" xlink:href="#aE"/></g><g id="K"><use transform="matrix(0.05,0,0,0.05,0,0)" xlink:href="#aY"/><use transform="matrix(0.05,0,0,0.05,12.950000000000001,0)" xlink:href="#ay"/><use transform="matrix(0.05,0,0,0.05,22.950000000000003,0)" xlink:href="#aK"/><use transform="matrix(0.05,0,0,0.05,37.900000000000006,0)" xlink:href="#aK"/><use transform="matrix(0.05,0,0,0.05,52.85,0)" xlink:href="#aL"/><use transform="matrix(0.05,0,0,0.05,62.85,0)" xlink:href="#aB"/><use transform="matrix(0.05,0,0,0.05,72.85000000000001,0)" xlink:href="#aO"/><use transform="matrix(0.05,0,0,0.05,77.85000000000001,0)" xlink:href="#aE"/></g><g id="L"><use transform="matrix(0.05,0,0,0.05,0,0)" xlink:href="#ax"/><use transform="matrix(0.05,0,0,0.05,10,0)" xlink:href="#aA"/><use transform="matrix(0.05,0,0,0.05,13.949999999999998,0)" xlink:href="#aE"/><use transform="matrix(0.05,0,0,0.05,22.95,0)" xlink:href="#aO"/><use transform="matrix(0.05,0,0,0.05,27.950000000000003,0)" xlink:href="#aD"/></g><g id="M"><use transform="matrix(0.05,0,0,0.05,0,0)" xlink:href="#aY"/><use transform="matrix(0.05,0,0,0.05,12.950000000000001,0)" xlink:href="#aD"/><use transform="matrix(0.05,0,0,0.05,22.950000000000003,0)" xlink:href="#aO"/><use transform="matrix(0.05,0,0,0.05,27.950000000000003,0)" xlink:href="#aL"/><use transform="matrix(0.05,0,0,0.05,37.95,0)" xlink:href="#az"/><use transform="matrix(0.05,0,0,0.05,47.95,0)" xlink:href="#ay"/><use transform="matrix(0.05,0,0,0.05,57.95,0)" xlink:href="#aH"/><use transform="matrix(0.05,0,0,0.05,63.900000000000006,0)" xlink:href="#aW"/></g><g id="N"><use transform="matrix(0.05,0,0,0.05,0,0)" xlink:href="#aW"/><use transform="matrix(0.05,0,0,0.05,9,0)" xlink:href="#ay"/><use transform="matrix(0.05,0,0,0.05,19,0)" xlink:href="#aP"/></g><g id="O"><use transform="matrix(0.05,0,0,0.05,0,0)" xlink:href="#aK"/><use transform="matrix(0.05,0,0,0.05,14.950000000000001,0)" xlink:href="#aA"/><use transform="matrix(0.05,0,0,0.05,18.900000000000002,0)" xlink:href="#az"/><use transform="matrix(0.05,0,0,0.05,28.900000000000002,0)" xlink:href="#aF"/><use transform="matrix(0.05,0,0,0.05,38.900000000000006,0)" xlink:href="#aO"/></g><path fill="#333" d="M143 0L79-87 56-68V0H24v-261h32v163l83-92h37l-77 82L181 0h-38" id="bf"/><g id="P"><use transform="matrix(0.05,0,0,0.05,0,0)" xlink:href="#aV"/><use transform="matrix(0.05,0,0,0.05,3.95,0)" xlink:href="#aA"/><use transform="matrix(0.05,0,0,0.05,7.9,0)" xlink:href="#bf"/><use transform="matrix(0.05,0,0,0.05,16.9,0)" xlink:href="#aL"/></g><path fill="#333" d="M143 4C61 4 22-44 18-125c-5-107 100-154 193-111 17 8 29 25 37 43l-32 9c-13-25-37-40-76-40-61 0-88 39-88 99 0 61 29 100 91 101 35 0 62-11 79-27v-45h-74v-28h105v86C228-13 192 4 143 4" id="bg"/><g id="Q"><use transform="matrix(0.05,0,0,0.05,0,0)" xlink:href="#bg"/><use transform="matrix(0.05,0,0,0.05,14,0)" xlink:href="#ay"/></g><g id="R"><use transform="matrix(0.05,0,0,0.05,0,0)" xlink:href="#aY"/><use transform="matrix(0.05,0,0,0.05,12.950000000000001,0)" xlink:href="#aD"/><use transform="matrix(0.05,0,0,0.05,22.950000000000003,0)" xlink:href="#aH"/><use transform="matrix(0.05,0,0,0.05,28.900000000000002,0)" xlink:href="#aO"/></g><g id="S"><use transform="matrix(0.05,0,0,0.05,0,0)" xlink:href="#aM"/><use transform="matrix(0.05,0,0,0.05,12,0)" xlink:href="#aL"/><use transform="matrix(0.05,0,0,0.05,22,0)" xlink:href="#aD"/><use transform="matrix(0.05,0,0,0.05,32,0)" xlink:href="#aH"/><use transform="matrix(0.05,0,0,0.05,37.95,0)" xlink:href="#aX"/><use transform="matrix(0.05,0,0,0.05,46.95,0)" xlink:href="#aF"/></g><g id="T"><use transform="matrix(0.05,0,0,0.05,0,0)" xlink:href="#aE"/><use transform="matrix(0.05,0,0,0.05,9,0)" xlink:href="#aP"/><use transform="matrix(0.05,0,0,0.05,19,0)" xlink:href="#aG"/><use transform="matrix(0.05,0,0,0.05,29,0)" xlink:href="#aK"/><use transform="matrix(0.05,0,0,0.05,43.95,0)" xlink:href="#aL"/><use transform="matrix(0.05,0,0,0.05,53.95,0)" xlink:href="#aB"/><use transform="matrix(0.05,0,0,0.05,63.95,0)" xlink:href="#aP"/></g><g id="U"><use transform="matrix(0.05,0,0,0.05,0,0)" xlink:href="#aY"/><use transform="matrix(0.05,0,0,0.05,12.950000000000001,0)" xlink:href="#aV"/><use transform="matrix(0.05,0,0,0.05,16.900000000000002,0)" xlink:href="#ay"/><use transform="matrix(0.05,0,0,0.05,26.900000000000002,0)" xlink:href="#aO"/><use transform="matrix(0.05,0,0,0.05,31.900000000000002,0)" xlink:href="#aF"/><use transform="matrix(0.05,0,0,0.05,41.900000000000006,0)" xlink:href="#aA"/><use transform="matrix(0.05,0,0,0.05,45.85000000000001,0)" xlink:href="#aB"/><use transform="matrix(0.05,0,0,0.05,55.85,0)" xlink:href="#az"/></g><g id="V"><use transform="matrix(0.05,0,0,0.05,0,0)" xlink:href="#aY"/><use transform="matrix(0.05,0,0,0.05,12.950000000000001,0)" xlink:href="#aV"/><use transform="matrix(0.05,0,0,0.05,16.900000000000002,0)" xlink:href="#ay"/><use transform="matrix(0.05,0,0,0.05,26.900000000000002,0)" xlink:href="#aO"/><use transform="matrix(0.05,0,0,0.05,31.900000000000002,0)" xlink:href="#aF"/><use transform="matrix(0.05,0,0,0.05,41.900000000000006,0)" xlink:href="#aA"/><use transform="matrix(0.05,0,0,0.05,45.85000000000001,0)" xlink:href="#aB"/><use transform="matrix(0.05,0,0,0.05,55.85,0)" xlink:href="#az"/></g><g id="W"><use transform="matrix(0.05,0,0,0.05,0,0)" xlink:href="#aC"/><use transform="matrix(0.05,0,0,0.05,12.950000000000001,0)" xlink:href="#aL"/><use transform="matrix(0.05,0,0,0.05,22.950000000000003,0)" xlink:href="#aO"/><use transform="matrix(0.05,0,0,0.05,27.950000000000003,0)" xlink:href="#aD"/><use transform="matrix(0.05,0,0,0.05,37.95,0)" xlink:href="#aA"/><use transform="matrix(0.05,0,0,0.05,41.900000000000006,0)" xlink:href="#aV"/></g><g id="X"><use transform="matrix(0.05,0,0,0.05,0,0)" xlink:href="#aT"/><use transform="matrix(0.05,0,0,0.05,12,0)" xlink:href="#aL"/><use transform="matrix(0.05,0,0,0.05,22,0)" xlink:href="#ay"/><use transform="matrix(0.05,0,0,0.05,32,0)" xlink:href="#aN"/><use transform="matrix(0.05,0,0,0.05,42,0)" xlink:href="#aV"/><use transform="matrix(0.05,0,0,0.05,45.95,0)" xlink:href="#aL"/></g><g id="Y"><use transform="matrix(0.05,0,0,0.05,0,0)" xlink:href="#aC"/><use transform="matrix(0.05,0,0,0.05,12.950000000000001,0)" xlink:href="#aL"/><use transform="matrix(0.05,0,0,0.05,22.950000000000003,0)" xlink:href="#aV"/><use transform="matrix(0.05,0,0,0.05,26.900000000000002,0)" xlink:href="#aA"/><use transform="matrix(0.05,0,0,0.05,30.85,0)" xlink:href="#bb"/><use transform="matrix(0.05,0,0,0.05,39.85,0)" xlink:href="#aL"/><use transform="matrix(0.05,0,0,0.05,49.85,0)" xlink:href="#aH"/><use transform="matrix(0.05,0,0,0.05,55.800000000000004,0)" xlink:href="#aW"/></g><path fill="#fff" d="M880-366c0-134-176-225-319-225H204v461h357c139 5 319-103 319-236zm-69-609c0-143-156-250-304-250H204v500h299c154 4 308-103 308-250zm195 609C1006-152 783 0 561 0H74v-1355h426c233-5 441 155 441 380 0 122-53 220-159 294 149 71 224 176 224 315" id="bh"/><path fill="#fff" d="M483-108c191 0 291-169 291-370v-479h130V0H774v-137C701-31 604 22 483 22 219 22 67-183 67-456v-501h130v501c-4 182 112 348 286 348" id="bi"/><path fill="#fff" d="M550-827c-191 0-346 159-346 349V0H72v-957h132v174c85-116 198-174 339-174h204v174c-69-29-134-44-197-44" id="bj"/><path fill="#fff" d="M177-478c0 192 146 370 333 370s324-179 324-370c0-193-136-371-324-371-187 0-333 180-333 371zm332 742c191 3 334-157 330-347v-91C756-43 647 22 510 22 246 22 47-209 47-478c0-259 208-501 463-501 140 0 250 67 329 201v-179h130v888c6 260-201 463-461 463C272 394 95 221 61 14L188-7c30 151 149 268 321 271" id="bk"/><path fill="#fff" d="M52-478c0-256 228-501 485-501 264 0 489 248 480 516H180c0 180 174 355 357 355 148 0 301-110 347-219l130 23C955-140 749 17 537 22 280 28 52-222 52-478zm815-115c-38-129-172-257-330-256-158 0-295 130-340 256h670" id="bl"/><g id="Z"><use transform="matrix(0.013020833333333313,0,0,0.013020833333333313,0,0)" xlink:href="#bh"/><use transform="matrix(0.013020833333333313,0,0,0.013020833333333313,14.58333333333331,0)" xlink:href="#bi"/><use transform="matrix(0.013020833333333313,0,0,0.013020833333333313,28.124999999999957,0)" xlink:href="#bj"/><use transform="matrix(0.013020833333333313,0,0,0.013020833333333313,38.45052083333327,0)" xlink:href="#bk"/><use transform="matrix(0.013020833333333313,0,0,0.013020833333333313,52.773437499999915,0)" xlink:href="#bi"/><use transform="matrix(0.013020833333333313,0,0,0.013020833333333313,66.31510416666656,0)" xlink:href="#bl"/><use transform="matrix(0.013020833333333313,0,0,0.013020833333333313,80.96354166666653,0)" xlink:href="#bj"/></g><path fill="#fff" d="M204-1131V0H72v-1355h167l417 834 417-834h172V0h-133v-1131L732-373H584" id="bm"/><path fill="#fff" d="M545-849c-196 0-341 171-341 371V0H74v-957h130v174c77-131 190-196 341-196 285 0 449 200 449 493V0H862v-478c2-219-106-371-317-371" id="bn"/><g id="aa"><use transform="matrix(0.013020833333333313,0,0,0.013020833333333313,0,0)" xlink:href="#bm"/><use transform="matrix(0.013020833333333313,0,0,0.013020833333333313,18.16406249999997,0)" xlink:href="#bl"/><use transform="matrix(0.013020833333333313,0,0,0.013020833333333313,32.81249999999995,0)" xlink:href="#bn"/><use transform="matrix(0.013020833333333313,0,0,0.013020833333333313,47.35677083333326,0)" xlink:href="#bi"/></g><path fill="#333" d="M240 0l2-218c-23 76-54 145-80 218h-23L58-218 59 0H30v-248h44l77 211c21-75 51-140 76-211h43V0h-30" id="bo"/><g id="ab"><use transform="matrix(0.05,0,0,0.05,0,0)" xlink:href="#bo"/><use transform="matrix(0.05,0,0,0.05,14.950000000000001,0)" xlink:href="#aW"/></g><g id="ac"><use transform="matrix(0.05,0,0,0.05,0,0)" xlink:href="#aZ"/><use transform="matrix(0.05,0,0,0.05,10.950000000000001,0)" xlink:href="#aA"/><use transform="matrix(0.05,0,0,0.05,14.9,0)" xlink:href="#aV"/><use transform="matrix(0.05,0,0,0.05,18.85,0)" xlink:href="#aO"/><use transform="matrix(0.05,0,0,0.05,23.85,0)" xlink:href="#aL"/><use transform="matrix(0.05,0,0,0.05,33.85,0)" xlink:href="#aH"/></g><g id="ad"><use transform="matrix(0.05,0,0,0.05,0,0)" xlink:href="#aJ"/><use transform="matrix(0.05,0,0,0.05,12.950000000000001,0)" xlink:href="#aL"/><use transform="matrix(0.05,0,0,0.05,22.950000000000003,0)" xlink:href="#aV"/><use transform="matrix(0.05,0,0,0.05,26.900000000000002,0)" xlink:href="#aN"/></g><g id="ae"><use transform="matrix(0.05,0,0,0.05,0,0)" xlink:href="#bd"/><use transform="matrix(0.05,0,0,0.05,12,0)" xlink:href="#aX"/><use transform="matrix(0.05,0,0,0.05,21,0)" xlink:href="#aX"/><use transform="matrix(0.05,0,0,0.05,30,0)" xlink:href="#ay"/><use transform="matrix(0.05,0,0,0.05,40,0)" xlink:href="#aP"/><use transform="matrix(0.05,0,0,0.05,50,0)" xlink:href="#aB"/><use transform="matrix(0.05,0,0,0.05,60,0)" xlink:href="#aO"/></g><g id="af"><use transform="matrix(0.05,0,0,0.05,0,0)" xlink:href="#bd"/><use transform="matrix(0.05,0,0,0.05,12,0)" xlink:href="#aI"/><use transform="matrix(0.05,0,0,0.05,22,0)" xlink:href="#aI"/><use transform="matrix(0.05,0,0,0.05,32,0)" xlink:href="#aH"/><use transform="matrix(0.05,0,0,0.05,37.95,0)" xlink:href="#aL"/><use transform="matrix(0.05,0,0,0.05,47.95,0)" xlink:href="#aE"/><use transform="matrix(0.05,0,0,0.05,56.95,0)" xlink:href="#aE"/></g><g id="ag"><use transform="matrix(0.05,0,0,0.05,0,0)" xlink:href="#aT"/><use transform="matrix(0.05,0,0,0.05,12,0)" xlink:href="#aD"/><use transform="matrix(0.05,0,0,0.05,22,0)" xlink:href="#aW"/></g><g id="ah"><use transform="matrix(0.05,0,0,0.05,0,0)" xlink:href="#bo"/><use transform="matrix(0.05,0,0,0.05,14.950000000000001,0)" xlink:href="#aL"/><use transform="matrix(0.05,0,0,0.05,24.950000000000003,0)" xlink:href="#aO"/><use transform="matrix(0.05,0,0,0.05,29.950000000000003,0)" xlink:href="#aF"/><use transform="matrix(0.05,0,0,0.05,39.95,0)" xlink:href="#ay"/><use transform="matrix(0.05,0,0,0.05,49.95,0)" xlink:href="#aI"/><use transform="matrix(0.05,0,0,0.05,59.95,0)" xlink:href="#aE"/></g><g id="ai"><use transform="matrix(0.05,0,0,0.05,0,0)" xlink:href="#aQ"/><use transform="matrix(0.05,0,0,0.05,16.95,0)" xlink:href="#aA"/><use transform="matrix(0.05,0,0,0.05,20.9,0)" xlink:href="#aE"/><use transform="matrix(0.05,0,0,0.05,29.899999999999995,0)" xlink:href="#aF"/></g><g id="aj"><use transform="matrix(0.05,0,0,0.05,0,0)" xlink:href="#ax"/><use transform="matrix(0.05,0,0,0.05,10,0)" xlink:href="#aA"/><use transform="matrix(0.05,0,0,0.05,13.949999999999998,0)" xlink:href="#aE"/><use transform="matrix(0.05,0,0,0.05,22.95,0)" xlink:href="#aO"/></g><path fill="#333" d="M101-234c-31-9-42 10-38 44h38v23H63V0H32v-167H5v-23h27c-7-52 17-82 69-68v24" id="bp"/><g id="ak"><use transform="matrix(0.05,0,0,0.05,0,0)" xlink:href="#aY"/><use transform="matrix(0.05,0,0,0.05,12.950000000000001,0)" xlink:href="#ay"/><use transform="matrix(0.05,0,0,0.05,22.950000000000003,0)" xlink:href="#aB"/><use transform="matrix(0.05,0,0,0.05,32.95,0)" xlink:href="#bp"/><use transform="matrix(0.05,0,0,0.05,37.95,0)" xlink:href="#aA"/><use transform="matrix(0.05,0,0,0.05,41.900000000000006,0)" xlink:href="#az"/><use transform="matrix(0.05,0,0,0.05,51.900000000000006,0)" xlink:href="#aP"/><use transform="matrix(0.05,0,0,0.05,61.900000000000006,0)" xlink:href="#aH"/><use transform="matrix(0.05,0,0,0.05,67.85000000000001,0)" xlink:href="#aD"/><use transform="matrix(0.05,0,0,0.05,77.85000000000001,0)" xlink:href="#aO"/><use transform="matrix(0.05,0,0,0.05,82.85000000000001,0)" xlink:href="#aA"/><use transform="matrix(0.05,0,0,0.05,86.80000000000001,0)" xlink:href="#ay"/><use transform="matrix(0.05,0,0,0.05,96.80000000000001,0)" xlink:href="#aB"/></g><path fill="#333" d="M30 0v-248h187v28H63v79h144v27H63v87h162V0H30" id="bq"/><path fill="#333" d="M141 0L90-78 38 0H4l68-98-65-92h35l48 74 47-74h35l-64 92 68 98h-35" id="br"/><g id="al"><use transform="matrix(0.05,0,0,0.05,0,0)" xlink:href="#bq"/><use transform="matrix(0.05,0,0,0.05,12,0)" xlink:href="#br"/><use transform="matrix(0.05,0,0,0.05,21,0)" xlink:href="#aA"/><use transform="matrix(0.05,0,0,0.05,24.95,0)" xlink:href="#aO"/></g><g id="am"><use transform="matrix(0.05,0,0,0.05,0,0)" xlink:href="#aO"/><use transform="matrix(0.05,0,0,0.05,5,0)" xlink:href="#aW"/><use transform="matrix(0.05,0,0,0.05,14,0)" xlink:href="#aN"/><use transform="matrix(0.05,0,0,0.05,24,0)" xlink:href="#aL"/></g><g id="an"><use transform="matrix(0.05,0,0,0.05,0,0)" xlink:href="#ay"/><use transform="matrix(0.05,0,0,0.05,10,0)" xlink:href="#bp"/></g><g id="ao"><use transform="matrix(0.05,0,0,0.05,0,0)" xlink:href="#aN"/><use transform="matrix(0.05,0,0,0.05,10,0)" xlink:href="#aD"/><use transform="matrix(0.05,0,0,0.05,20,0)" xlink:href="#aW"/><use transform="matrix(0.05,0,0,0.05,29,0)" xlink:href="#aK"/><use transform="matrix(0.05,0,0,0.05,43.95,0)" xlink:href="#aL"/><use transform="matrix(0.05,0,0,0.05,53.95,0)" xlink:href="#aB"/><use transform="matrix(0.05,0,0,0.05,63.95,0)" xlink:href="#aO"/></g><g id="ap"><use transform="matrix(0.05,0,0,0.05,0,0)" xlink:href="#bd"/><use transform="matrix(0.05,0,0,0.05,12,0)" xlink:href="#aI"/><use transform="matrix(0.05,0,0,0.05,22,0)" xlink:href="#aI"/></g><g id="aq"><use transform="matrix(0.05,0,0,0.05,0,0)" xlink:href="#aY"/><use transform="matrix(0.05,0,0,0.05,12.950000000000001,0)" xlink:href="#aD"/><use transform="matrix(0.05,0,0,0.05,22.950000000000003,0)" xlink:href="#aH"/><use transform="matrix(0.05,0,0,0.05,28.900000000000002,0)" xlink:href="#aI"/></g><g id="ar"><use transform="matrix(0.05,0,0,0.05,0,0)" xlink:href="#ba"/><use transform="matrix(0.05,0,0,0.05,14,0)" xlink:href="#aO"/><use transform="matrix(0.05,0,0,0.05,19,0)" xlink:href="#aF"/><use transform="matrix(0.05,0,0,0.05,29,0)" xlink:href="#aL"/><use transform="matrix(0.05,0,0,0.05,39,0)" xlink:href="#aH"/></g><g id="as"><use transform="matrix(0.05,0,0,0.05,0,0)" xlink:href="#aT"/><use transform="matrix(0.05,0,0,0.05,12,0)" xlink:href="#aD"/><use transform="matrix(0.05,0,0,0.05,22,0)" xlink:href="#az"/><use transform="matrix(0.05,0,0,0.05,32,0)" xlink:href="#aL"/><use transform="matrix(0.05,0,0,0.05,42,0)" xlink:href="#aE"/></g><g id="at"><use transform="matrix(0.05,0,0,0.05,0,0)" xlink:href="#aU"/><use transform="matrix(0.05,0,0,0.05,12.950000000000001,0)" xlink:href="#aL"/><use transform="matrix(0.05,0,0,0.05,22.950000000000003,0)" xlink:href="#az"/><use transform="matrix(0.05,0,0,0.05,32.95,0)" xlink:href="#aA"/><use transform="matrix(0.05,0,0,0.05,36.900000000000006,0)" xlink:href="#aE"/><use transform="matrix(0.05,0,0,0.05,45.900000000000006,0)" xlink:href="#aO"/><use transform="matrix(0.05,0,0,0.05,50.900000000000006,0)" xlink:href="#aL"/><use transform="matrix(0.05,0,0,0.05,60.900000000000006,0)" xlink:href="#aH"/><use transform="matrix(0.05,0,0,0.05,66.85000000000001,0)" xlink:href="#aL"/><use transform="matrix(0.05,0,0,0.05,76.85000000000001,0)" xlink:href="#aI"/></g><g id="au"><use transform="matrix(0.05,0,0,0.05,0,0)" xlink:href="#aX"/><use transform="matrix(0.05,0,0,0.05,9,0)" xlink:href="#aD"/><use transform="matrix(0.05,0,0,0.05,19,0)" xlink:href="#aH"/><use transform="matrix(0.05,0,0,0.05,24.95,0)" xlink:href="#aI"/><use transform="matrix(0.05,0,0,0.05,34.95,0)" xlink:href="#aE"/></g></defs></g></svg>